<svg width="348" height="181" viewBox="0 0 348 181" fill="none" xmlns="http://www.w3.org/2000/svg">
<g filter="url(#filter0_d_0_163)">
<rect x="8" y="8" width="332" height="165" rx="10" fill="white"/>
<path d="M159 87.5H139V69.5H141V85.5H143V76.5H147V85.5H149V72.5H153V85.5H155V80.5H159V87.5Z" fill="#38628B" fill-opacity="0.35"/>
<g clip-path="url(#clip0_0_163)">
<path d="M183.889 87.3889H166.111V69.6111" stroke="#38628B" stroke-opacity="0.35" stroke-width="1.5" stroke-linecap="round" stroke-linejoin="round"/>
<path d="M166.111 83.5L175 75.1667L178.333 78.5L183.333 73.5" stroke="#38628B" stroke-opacity="0.35" stroke-width="1.5" stroke-linecap="round" stroke-linejoin="round"/>
</g>
<path d="M200 69.5V89.5C194.9 89 191 84.7 191 79.5C191 74.3 194.9 70 200 69.5ZM202 69.5V78.5H211C210.5 73.7 206.8 70 202 69.5ZM202 80.5V89.5C206.7 89 210.5 85.3 211 80.5H202Z" fill="#38628B" fill-opacity="0.35"/>
<path d="M116.212 107.912V107.202H117.292V107.912H116.212ZM112.492 107.912C111.832 107.912 111.282 107.835 110.842 107.682C110.402 107.529 110.072 107.295 109.852 106.982C109.632 106.669 109.522 106.269 109.522 105.782C109.522 105.622 109.532 105.449 109.552 105.262C109.579 105.075 109.609 104.895 109.642 104.722C109.675 104.542 109.705 104.389 109.732 104.262C109.759 104.129 109.775 104.039 109.782 103.992L110.542 104.132C110.522 104.239 110.492 104.385 110.452 104.572C110.419 104.759 110.385 104.959 110.352 105.172C110.319 105.385 110.302 105.589 110.302 105.782C110.302 106.029 110.339 106.242 110.412 106.422C110.492 106.602 110.615 106.752 110.782 106.872C110.955 106.985 111.182 107.069 111.462 107.122C111.742 107.175 112.085 107.202 112.492 107.202H115.432V102.912H116.212V107.912H112.492ZM117.292 107.912V107.202C117.332 107.202 117.365 107.212 117.392 107.232C117.419 107.245 117.439 107.269 117.452 107.302C117.465 107.329 117.475 107.365 117.482 107.412C117.489 107.452 117.492 107.499 117.492 107.552C117.492 107.605 117.489 107.655 117.482 107.702C117.475 107.749 117.465 107.789 117.452 107.822C117.439 107.849 117.419 107.872 117.392 107.892C117.365 107.905 117.332 107.912 117.292 107.912ZM112.512 101.662V100.812H113.232V101.662H112.512ZM111.792 102.982V102.082H112.572V102.982H111.792ZM113.162 102.982V102.082H113.942V102.982H113.162ZM122.246 107.912V107.202H123.326V107.912H122.246ZM117.296 107.912C117.256 107.912 117.223 107.905 117.196 107.892C117.169 107.872 117.149 107.849 117.136 107.822C117.123 107.789 117.113 107.749 117.106 107.702C117.099 107.655 117.096 107.605 117.096 107.552C117.096 107.479 117.103 107.419 117.116 107.372C117.123 107.319 117.143 107.279 117.176 107.252C117.203 107.219 117.243 107.202 117.296 107.202V107.912ZM117.296 107.912V107.202H121.706L121.466 107.412V104.932C121.466 104.499 121.329 104.175 121.056 103.962C120.789 103.742 120.379 103.632 119.826 103.632C119.653 103.632 119.403 103.649 119.076 103.682C118.749 103.709 118.406 103.749 118.046 103.802L117.956 103.162C118.229 103.095 118.529 103.039 118.856 102.992C119.183 102.939 119.499 102.912 119.806 102.912C120.313 102.912 120.746 102.992 121.106 103.152C121.473 103.305 121.753 103.532 121.946 103.832C122.146 104.132 122.246 104.499 122.246 104.932V107.912H117.296ZM123.326 107.912V107.202C123.366 107.202 123.399 107.212 123.426 107.232C123.453 107.245 123.473 107.269 123.486 107.302C123.499 107.329 123.509 107.365 123.516 107.412C123.523 107.452 123.526 107.499 123.526 107.552C123.526 107.605 123.523 107.655 123.516 107.702C123.509 107.749 123.499 107.789 123.486 107.822C123.473 107.849 123.453 107.872 123.426 107.892C123.399 107.905 123.366 107.912 123.326 107.912ZM125.181 107.912V107.202H126.261V107.912H125.181ZM123.321 107.912C123.281 107.912 123.248 107.905 123.221 107.892C123.195 107.872 123.175 107.849 123.161 107.822C123.148 107.789 123.138 107.749 123.131 107.702C123.125 107.655 123.121 107.605 123.121 107.552C123.121 107.479 123.128 107.419 123.141 107.372C123.148 107.319 123.168 107.279 123.201 107.252C123.228 107.219 123.268 107.202 123.321 107.202V107.912ZM123.321 107.912V107.202H124.761L124.401 107.492V102.912H125.181V107.912H123.321ZM126.261 107.912V107.202C126.301 107.202 126.335 107.212 126.361 107.232C126.388 107.245 126.408 107.269 126.421 107.302C126.435 107.329 126.445 107.365 126.451 107.412C126.458 107.452 126.461 107.499 126.461 107.552C126.461 107.605 126.458 107.655 126.451 107.702C126.445 107.749 126.435 107.789 126.421 107.822C126.408 107.849 126.388 107.872 126.361 107.892C126.335 107.905 126.301 107.912 126.261 107.912ZM124.401 109.712V108.812H125.181V109.712H124.401ZM127.471 107.912V100.742H128.251V107.912H127.471ZM126.261 107.912V107.202H127.471V107.912H126.261ZM126.261 107.912C126.221 107.912 126.187 107.905 126.161 107.892C126.134 107.872 126.114 107.849 126.101 107.822C126.087 107.789 126.077 107.749 126.071 107.702C126.064 107.655 126.061 107.605 126.061 107.552C126.061 107.479 126.067 107.419 126.081 107.372C126.087 107.319 126.107 107.279 126.141 107.252C126.167 107.219 126.207 107.202 126.261 107.202V107.912ZM129.975 107.912V100.742H130.745V107.912H129.975ZM137.267 107.912C136.607 107.912 136.057 107.835 135.617 107.682C135.177 107.529 134.847 107.295 134.627 106.982C134.407 106.669 134.297 106.269 134.297 105.782C134.297 105.622 134.307 105.449 134.327 105.262C134.354 105.075 134.384 104.895 134.417 104.722C134.451 104.542 134.481 104.389 134.507 104.262C134.534 104.129 134.551 104.039 134.557 103.992L135.317 104.132C135.297 104.239 135.267 104.385 135.227 104.572C135.194 104.759 135.161 104.959 135.127 105.172C135.094 105.385 135.077 105.589 135.077 105.782C135.077 106.029 135.114 106.242 135.187 106.422C135.267 106.602 135.391 106.752 135.557 106.872C135.731 106.985 135.957 107.069 136.237 107.122C136.517 107.175 136.861 107.202 137.267 107.202H140.567L140.207 107.492V100.742H140.987V107.912H137.267ZM137.177 104.452C137.071 104.319 136.987 104.189 136.927 104.062C136.874 103.935 136.847 103.802 136.847 103.662C136.847 103.469 136.894 103.295 136.987 103.142C137.087 102.989 137.217 102.869 137.377 102.782C137.537 102.695 137.711 102.652 137.897 102.652C138.004 102.652 138.111 102.669 138.217 102.702C138.324 102.729 138.417 102.769 138.497 102.822L138.237 103.272C138.184 103.239 138.131 103.219 138.077 103.212C138.031 103.199 137.981 103.192 137.927 103.192C137.774 103.192 137.651 103.235 137.557 103.322C137.471 103.409 137.427 103.522 137.427 103.662C137.427 103.749 137.444 103.832 137.477 103.912C137.517 103.992 137.574 104.079 137.647 104.172L137.177 104.452ZM136.657 104.452V103.922H138.627V104.452H136.657ZM143.459 107.912V107.202H144.739V107.912H143.459ZM141.829 110.122C141.743 110.122 141.653 110.115 141.559 110.102C141.459 110.095 141.363 110.089 141.269 110.082L141.359 109.372C141.453 109.379 141.539 109.385 141.619 109.392C141.699 109.405 141.769 109.412 141.829 109.412C142.143 109.412 142.396 109.292 142.589 109.052C142.783 108.819 142.879 108.492 142.879 108.072V102.912H143.659V108.072C143.659 108.479 143.579 108.835 143.419 109.142C143.266 109.455 143.053 109.695 142.779 109.862C142.506 110.035 142.189 110.122 141.829 110.122ZM144.739 107.912V107.202C144.779 107.202 144.813 107.212 144.839 107.232C144.866 107.245 144.886 107.269 144.899 107.302C144.913 107.329 144.923 107.365 144.929 107.412C144.936 107.452 144.939 107.499 144.939 107.552C144.939 107.605 144.936 107.655 144.929 107.702C144.923 107.749 144.913 107.789 144.899 107.822C144.886 107.849 144.866 107.872 144.839 107.892C144.813 107.905 144.779 107.912 144.739 107.912ZM149.687 107.912V107.202H150.767V107.912H149.687ZM144.737 107.912C144.697 107.912 144.664 107.905 144.637 107.892C144.611 107.872 144.591 107.849 144.577 107.822C144.564 107.789 144.554 107.749 144.547 107.702C144.541 107.655 144.537 107.605 144.537 107.552C144.537 107.479 144.544 107.419 144.557 107.372C144.564 107.319 144.584 107.279 144.617 107.252C144.644 107.219 144.684 107.202 144.737 107.202V107.912ZM144.737 107.912V107.202H149.147L148.907 107.412V104.932C148.907 104.499 148.771 104.175 148.497 103.962C148.231 103.742 147.821 103.632 147.267 103.632C147.094 103.632 146.844 103.649 146.517 103.682C146.191 103.709 145.847 103.749 145.487 103.802L145.397 103.162C145.671 103.095 145.971 103.039 146.297 102.992C146.624 102.939 146.941 102.912 147.247 102.912C147.754 102.912 148.187 102.992 148.547 103.152C148.914 103.305 149.194 103.532 149.387 103.832C149.587 104.132 149.687 104.499 149.687 104.932V107.912H144.737ZM150.767 107.912V107.202C150.807 107.202 150.841 107.212 150.867 107.232C150.894 107.245 150.914 107.269 150.927 107.302C150.941 107.329 150.951 107.365 150.957 107.412C150.964 107.452 150.967 107.499 150.967 107.552C150.967 107.605 150.964 107.655 150.957 107.702C150.951 107.749 150.941 107.789 150.927 107.822C150.914 107.849 150.894 107.872 150.867 107.892C150.841 107.905 150.807 107.912 150.767 107.912ZM150.763 107.912V107.202H156.233L155.653 107.612V105.462C155.653 104.995 155.599 104.629 155.493 104.362C155.386 104.095 155.203 103.905 154.943 103.792C154.689 103.679 154.343 103.622 153.903 103.622C153.623 103.622 153.343 103.642 153.063 103.682C152.789 103.722 152.576 103.775 152.423 103.842L152.893 103.362C152.853 103.522 152.813 103.725 152.773 103.972C152.733 104.212 152.699 104.472 152.673 104.752C152.646 105.032 152.633 105.312 152.633 105.592C152.633 105.879 152.646 106.159 152.673 106.432C152.699 106.705 152.729 106.942 152.763 107.142C152.796 107.342 152.823 107.482 152.843 107.562L152.103 107.772C152.076 107.685 152.043 107.535 152.003 107.322C151.969 107.109 151.936 106.852 151.903 106.552C151.876 106.252 151.863 105.932 151.863 105.592C151.863 105.265 151.876 104.949 151.903 104.642C151.936 104.329 151.973 104.045 152.013 103.792C152.059 103.539 152.103 103.335 152.143 103.182C152.289 103.122 152.523 103.062 152.843 103.002C153.163 102.942 153.516 102.912 153.903 102.912C154.463 102.912 154.929 102.995 155.303 103.162C155.683 103.329 155.966 103.599 156.153 103.972C156.339 104.339 156.433 104.835 156.433 105.462V107.912H150.763ZM150.763 107.912C150.723 107.912 150.689 107.905 150.663 107.892C150.636 107.872 150.616 107.849 150.603 107.822C150.589 107.789 150.579 107.749 150.573 107.702C150.566 107.655 150.563 107.605 150.563 107.552C150.563 107.479 150.569 107.419 150.583 107.372C150.589 107.319 150.609 107.279 150.643 107.252C150.669 107.219 150.709 107.202 150.763 107.202V107.912ZM162.526 110.392C162.139 110.392 161.779 110.335 161.446 110.222C161.113 110.115 160.819 109.962 160.566 109.762C160.319 109.569 160.126 109.335 159.986 109.062C159.846 108.789 159.776 108.489 159.776 108.162C159.776 108.029 159.786 107.852 159.806 107.632C159.833 107.412 159.863 107.165 159.896 106.892C159.936 106.612 159.979 106.329 160.026 106.042L160.796 106.152C160.723 106.599 160.663 107.005 160.616 107.372C160.576 107.739 160.556 107.999 160.556 108.152C160.556 108.452 160.639 108.715 160.806 108.942C160.973 109.175 161.203 109.355 161.496 109.482C161.796 109.615 162.139 109.682 162.526 109.682H165.356C165.863 109.682 166.246 109.542 166.506 109.262C166.773 108.982 166.906 108.572 166.906 108.032V107.702H167.676V108.042C167.676 108.502 167.586 108.909 167.406 109.262C167.226 109.615 166.963 109.892 166.616 110.092C166.276 110.292 165.856 110.392 165.356 110.392H162.526ZM166.326 107.912C166.099 107.912 165.869 107.889 165.636 107.842C165.409 107.795 165.183 107.699 164.956 107.552L165.396 106.962C165.489 107.022 165.579 107.072 165.666 107.112C165.753 107.145 165.849 107.169 165.956 107.182C166.063 107.195 166.186 107.202 166.326 107.202H168.216V107.912H166.326ZM168.216 107.912V107.202C168.256 107.202 168.289 107.212 168.316 107.232C168.343 107.245 168.363 107.269 168.376 107.302C168.389 107.329 168.399 107.365 168.406 107.412C168.413 107.452 168.416 107.499 168.416 107.552C168.416 107.605 168.413 107.655 168.406 107.702C168.399 107.749 168.389 107.789 168.376 107.822C168.363 107.849 168.343 107.872 168.316 107.892C168.289 107.905 168.256 107.912 168.216 107.912ZM162.656 112.212V111.312H163.436V112.212H162.656ZM164.026 112.212V111.312H164.806V112.212H164.026ZM166.222 107.912V107.202H171.272L170.752 107.652V103.282L171.162 103.622H169.462C169.075 103.622 168.775 103.669 168.562 103.762C168.355 103.855 168.212 104.032 168.132 104.292C168.052 104.545 168.012 104.919 168.012 105.412C168.012 105.905 168.052 106.282 168.132 106.542C168.212 106.795 168.355 106.969 168.562 107.062C168.775 107.155 169.075 107.202 169.462 107.202V107.712C168.882 107.712 168.428 107.642 168.102 107.502C167.782 107.355 167.555 107.115 167.422 106.782C167.295 106.442 167.232 105.985 167.232 105.412C167.232 104.839 167.295 104.369 167.422 104.002C167.555 103.629 167.782 103.355 168.102 103.182C168.428 103.002 168.882 102.912 169.462 102.912H171.532V107.912H166.222ZM166.222 107.912C166.182 107.912 166.148 107.905 166.122 107.892C166.095 107.872 166.075 107.849 166.062 107.822C166.048 107.789 166.038 107.749 166.032 107.702C166.025 107.655 166.022 107.605 166.022 107.552C166.022 107.479 166.028 107.419 166.042 107.372C166.048 107.319 166.068 107.279 166.102 107.252C166.128 107.219 166.168 107.202 166.222 107.202V107.912ZM169.222 102.012V101.112H170.002V102.012H169.222ZM177.123 107.912C176.543 107.912 176.09 107.825 175.763 107.652C175.443 107.472 175.216 107.199 175.083 106.832C174.956 106.459 174.893 105.985 174.893 105.412C174.893 104.839 174.956 104.369 175.083 104.002C175.216 103.629 175.443 103.355 175.763 103.182C176.09 103.002 176.543 102.912 177.123 102.912H179.193V107.512H178.413V103.282L178.813 103.622H177.123C176.736 103.622 176.436 103.669 176.223 103.762C176.016 103.855 175.873 104.032 175.793 104.292C175.713 104.545 175.673 104.919 175.673 105.412C175.673 105.905 175.713 106.282 175.793 106.542C175.873 106.795 176.016 106.969 176.223 107.062C176.436 107.155 176.736 107.202 177.123 107.202H180.273V107.912H177.123ZM180.273 107.912V107.202C180.313 107.202 180.346 107.212 180.373 107.232C180.4 107.245 180.42 107.269 180.433 107.302C180.446 107.329 180.456 107.365 180.463 107.412C180.47 107.452 180.473 107.499 180.473 107.552C180.473 107.605 180.47 107.655 180.463 107.702C180.456 107.749 180.446 107.789 180.433 107.822C180.42 107.849 180.4 107.872 180.373 107.892C180.346 107.905 180.313 107.912 180.273 107.912ZM176.153 102.012V101.112H176.933V102.012H176.153ZM177.523 102.012V101.112H178.303V102.012H177.523ZM182.134 107.912V107.202H183.214V107.912H182.134ZM183.214 107.912V107.202C183.254 107.202 183.288 107.212 183.314 107.232C183.341 107.245 183.361 107.269 183.374 107.302C183.388 107.329 183.398 107.365 183.404 107.412C183.411 107.452 183.414 107.499 183.414 107.552C183.414 107.605 183.411 107.655 183.404 107.702C183.398 107.749 183.388 107.789 183.374 107.822C183.361 107.849 183.341 107.872 183.314 107.892C183.288 107.905 183.254 107.912 183.214 107.912ZM180.274 107.912C180.234 107.912 180.201 107.905 180.174 107.892C180.148 107.872 180.128 107.849 180.114 107.822C180.101 107.789 180.091 107.749 180.084 107.702C180.078 107.655 180.074 107.605 180.074 107.552C180.074 107.479 180.081 107.419 180.094 107.372C180.101 107.319 180.121 107.279 180.154 107.252C180.181 107.219 180.221 107.202 180.274 107.202V107.912ZM180.274 107.912V107.202H181.714L181.354 107.492V102.912H182.134V107.912H180.274ZM180.674 109.712V108.812H181.454V109.712H180.674ZM182.044 109.712V108.812H182.824V109.712H182.044ZM185.074 107.912V107.202H186.154V107.912H185.074ZM183.214 107.912C183.174 107.912 183.141 107.905 183.114 107.892C183.087 107.872 183.067 107.849 183.054 107.822C183.041 107.789 183.031 107.749 183.024 107.702C183.017 107.655 183.014 107.605 183.014 107.552C183.014 107.479 183.021 107.419 183.034 107.372C183.041 107.319 183.061 107.279 183.094 107.252C183.121 107.219 183.161 107.202 183.214 107.202V107.912ZM183.214 107.912V107.202H184.654L184.294 107.492V102.912H185.074V107.912H183.214ZM186.154 107.912V107.202C186.194 107.202 186.227 107.212 186.254 107.232C186.281 107.245 186.301 107.269 186.314 107.302C186.327 107.329 186.337 107.365 186.344 107.412C186.351 107.452 186.354 107.499 186.354 107.552C186.354 107.605 186.351 107.655 186.344 107.702C186.337 107.749 186.327 107.789 186.314 107.822C186.301 107.849 186.281 107.872 186.254 107.892C186.227 107.905 186.194 107.912 186.154 107.912ZM184.294 102.012V101.112H185.074V102.012H184.294ZM186.153 107.912V107.202H191.623L191.043 107.612V105.462C191.043 104.995 190.99 104.629 190.883 104.362C190.777 104.095 190.593 103.905 190.333 103.792C190.08 103.679 189.733 103.622 189.293 103.622C189.013 103.622 188.733 103.642 188.453 103.682C188.18 103.722 187.967 103.775 187.813 103.842L188.283 103.362C188.243 103.522 188.203 103.725 188.163 103.972C188.123 104.212 188.09 104.472 188.063 104.752C188.037 105.032 188.023 105.312 188.023 105.592C188.023 105.879 188.037 106.159 188.063 106.432C188.09 106.705 188.12 106.942 188.153 107.142C188.187 107.342 188.213 107.482 188.233 107.562L187.493 107.772C187.467 107.685 187.433 107.535 187.393 107.322C187.36 107.109 187.327 106.852 187.293 106.552C187.267 106.252 187.253 105.932 187.253 105.592C187.253 105.265 187.267 104.949 187.293 104.642C187.327 104.329 187.363 104.045 187.403 103.792C187.45 103.539 187.493 103.335 187.533 103.182C187.68 103.122 187.913 103.062 188.233 103.002C188.553 102.942 188.907 102.912 189.293 102.912C189.853 102.912 190.32 102.995 190.693 103.162C191.073 103.329 191.357 103.599 191.543 103.972C191.73 104.339 191.823 104.835 191.823 105.462V107.912H186.153ZM186.153 107.912C186.113 107.912 186.08 107.905 186.053 107.892C186.027 107.872 186.007 107.849 185.993 107.822C185.98 107.789 185.97 107.749 185.963 107.702C185.957 107.655 185.953 107.605 185.953 107.552C185.953 107.479 185.96 107.419 185.973 107.372C185.98 107.319 186 107.279 186.033 107.252C186.06 107.219 186.1 107.202 186.153 107.202V107.912ZM192.659 110.122C192.573 110.122 192.483 110.115 192.389 110.102C192.289 110.095 192.193 110.089 192.099 110.082L192.189 109.372C192.283 109.379 192.369 109.385 192.449 109.392C192.529 109.405 192.599 109.412 192.659 109.412C192.973 109.412 193.226 109.292 193.419 109.052C193.613 108.819 193.709 108.492 193.709 108.072V102.912H194.489V108.072C194.489 108.479 194.409 108.835 194.249 109.142C194.096 109.455 193.883 109.695 193.609 109.862C193.336 110.035 193.019 110.122 192.659 110.122ZM193.709 102.012V101.112H194.489V102.012H193.709ZM197.794 107.912V105.512C197.794 104.872 197.887 104.362 198.074 103.982C198.26 103.602 198.54 103.329 198.914 103.162C199.294 102.995 199.76 102.912 200.314 102.912C200.874 102.912 201.34 102.995 201.714 103.162C202.087 103.329 202.367 103.602 202.554 103.982C202.74 104.362 202.834 104.872 202.834 105.512V107.912H197.794ZM198.574 107.542L198.164 107.202H202.464L202.064 107.542V105.512C202.064 105.032 202.01 104.655 201.904 104.382C201.797 104.102 201.614 103.905 201.354 103.792C201.1 103.679 200.754 103.622 200.314 103.622C199.874 103.622 199.527 103.679 199.274 103.792C199.02 103.905 198.84 104.102 198.734 104.382C198.627 104.655 198.574 105.032 198.574 105.512V107.542ZM199.244 102.012V101.112H200.024V102.012H199.244ZM200.614 102.012V101.112H201.394V102.012H200.614ZM207.313 107.912V102.912H208.093V107.492L207.733 107.202H209.173V107.912H207.313ZM205.153 104.612V103.892H207.313V104.612H205.153ZM203.323 110.122C203.237 110.122 203.147 110.115 203.053 110.102C202.953 110.095 202.857 110.089 202.763 110.082L202.853 109.372C202.947 109.379 203.033 109.385 203.113 109.392C203.193 109.405 203.263 109.412 203.323 109.412C203.637 109.412 203.89 109.292 204.083 109.052C204.277 108.819 204.373 108.492 204.373 108.072V102.912H205.153V108.072C205.153 108.479 205.073 108.835 204.913 109.142C204.76 109.455 204.547 109.695 204.273 109.862C204 110.035 203.683 110.122 203.323 110.122ZM209.173 107.912V107.202C209.213 107.202 209.247 107.212 209.273 107.232C209.3 107.245 209.32 107.269 209.333 107.302C209.347 107.329 209.357 107.365 209.363 107.412C209.37 107.452 209.373 107.499 209.373 107.552C209.373 107.605 209.37 107.655 209.363 107.702C209.357 107.749 209.347 107.789 209.333 107.822C209.32 107.849 209.3 107.872 209.273 107.892C209.247 107.905 209.213 107.912 209.173 107.912ZM206.633 102.012V101.112H207.413V102.012H206.633ZM208.003 102.012V101.112H208.783V102.012H208.003ZM209.171 107.912V107.202H214.221L213.701 107.652V103.282L214.111 103.622H212.411C212.024 103.622 211.724 103.669 211.511 103.762C211.304 103.855 211.161 104.032 211.081 104.292C211.001 104.545 210.961 104.919 210.961 105.412C210.961 105.905 211.001 106.282 211.081 106.542C211.161 106.795 211.304 106.969 211.511 107.062C211.724 107.155 212.024 107.202 212.411 107.202V107.712C211.831 107.712 211.378 107.642 211.051 107.502C210.731 107.355 210.504 107.115 210.371 106.782C210.244 106.442 210.181 105.985 210.181 105.412C210.181 104.839 210.244 104.369 210.371 104.002C210.504 103.629 210.731 103.355 211.051 103.182C211.378 103.002 211.831 102.912 212.411 102.912H214.481V107.912H209.171ZM209.171 107.912C209.131 107.912 209.098 107.905 209.071 107.892C209.044 107.872 209.024 107.849 209.011 107.822C208.998 107.789 208.988 107.749 208.981 107.702C208.974 107.655 208.971 107.605 208.971 107.552C208.971 107.479 208.978 107.419 208.991 107.372C208.998 107.319 209.018 107.279 209.051 107.252C209.078 107.219 209.118 107.202 209.171 107.202V107.912ZM212.171 102.012V101.112H212.951V102.012H212.171ZM226.912 107.912V107.202H227.992V107.912H226.912ZM220.952 107.912C220.292 107.912 219.742 107.835 219.302 107.682C218.862 107.529 218.532 107.295 218.312 106.982C218.092 106.669 217.982 106.269 217.982 105.782C217.982 105.622 217.992 105.449 218.012 105.262C218.039 105.075 218.069 104.895 218.102 104.722C218.136 104.542 218.166 104.389 218.192 104.262C218.219 104.129 218.236 104.039 218.242 103.992L219.002 104.132C218.982 104.239 218.952 104.385 218.912 104.572C218.879 104.759 218.846 104.959 218.812 105.172C218.779 105.385 218.762 105.589 218.762 105.782C218.762 106.029 218.799 106.242 218.872 106.422C218.952 106.602 219.076 106.752 219.242 106.872C219.416 106.985 219.642 107.069 219.922 107.122C220.202 107.175 220.546 107.202 220.952 107.202H226.652L226.132 107.652V103.282L226.542 103.622H224.842C224.456 103.622 224.156 103.669 223.942 103.762C223.736 103.855 223.592 104.032 223.512 104.292C223.432 104.545 223.392 104.919 223.392 105.412C223.392 105.905 223.432 106.282 223.512 106.542C223.592 106.795 223.736 106.969 223.942 107.062C224.156 107.155 224.456 107.202 224.842 107.202V107.712C224.262 107.712 223.809 107.642 223.482 107.502C223.162 107.355 222.936 107.115 222.802 106.782C222.676 106.442 222.612 105.985 222.612 105.412C222.612 104.839 222.676 104.369 222.802 104.002C222.936 103.629 223.162 103.355 223.482 103.182C223.809 103.002 224.262 102.912 224.842 102.912H226.912V107.912H220.952ZM227.992 107.912V107.202C228.032 107.202 228.066 107.212 228.092 107.232C228.119 107.245 228.139 107.269 228.152 107.302C228.166 107.329 228.176 107.365 228.182 107.412C228.189 107.452 228.192 107.499 228.192 107.552C228.192 107.605 228.189 107.655 228.182 107.702C228.176 107.749 228.166 107.789 228.152 107.822C228.139 107.849 228.119 107.872 228.092 107.892C228.066 107.905 228.032 107.912 227.992 107.912ZM224.602 102.012V101.112H225.382V102.012H224.602ZM227.989 107.912V107.202H235.379L234.659 107.852V105.502C234.659 105.082 234.599 104.735 234.479 104.462C234.366 104.182 234.193 103.972 233.959 103.832C233.733 103.692 233.446 103.622 233.099 103.622C232.806 103.622 232.533 103.672 232.279 103.772C232.033 103.865 231.803 103.992 231.589 104.152C231.376 104.305 231.176 104.479 230.989 104.672C230.809 104.859 230.643 105.049 230.489 105.242C230.336 105.435 230.196 105.612 230.069 105.772L229.819 105.062C229.986 104.855 230.153 104.649 230.319 104.442C230.493 104.235 230.673 104.042 230.859 103.862C231.046 103.675 231.249 103.512 231.469 103.372C231.696 103.232 231.943 103.122 232.209 103.042C232.476 102.955 232.776 102.912 233.109 102.912C233.583 102.912 233.969 102.992 234.269 103.152C234.576 103.312 234.813 103.525 234.979 103.792C235.153 104.052 235.273 104.332 235.339 104.632C235.406 104.932 235.439 105.222 235.439 105.502V107.912H227.989ZM229.409 107.202V102.912H230.189V107.202H229.409ZM227.989 107.912C227.949 107.912 227.916 107.905 227.889 107.892C227.863 107.872 227.843 107.849 227.829 107.822C227.816 107.789 227.806 107.749 227.799 107.702C227.793 107.655 227.789 107.605 227.789 107.552C227.789 107.479 227.796 107.419 227.809 107.372C227.816 107.319 227.836 107.279 227.869 107.252C227.896 107.219 227.936 107.202 227.989 107.202V107.912ZM232.139 102.022V101.122H232.919V102.022H232.139ZM237.152 107.912V100.742H237.922V107.912H237.152Z" fill="#B9C8D7"/>
</g>
<defs>
<filter id="filter0_d_0_163" x="0" y="0" width="348" height="181" filterUnits="userSpaceOnUse" color-interpolation-filters="sRGB">
<feFlood flood-opacity="0" result="BackgroundImageFix"/>
<feColorMatrix in="SourceAlpha" type="matrix" values="0 0 0 0 0 0 0 0 0 0 0 0 0 0 0 0 0 0 127 0" result="hardAlpha"/>
<feOffset/>
<feGaussianBlur stdDeviation="4"/>
<feComposite in2="hardAlpha" operator="out"/>
<feColorMatrix type="matrix" values="0 0 0 0 0 0 0 0 0 0 0 0 0 0 0 0 0 0 0.1 0"/>
<feBlend mode="normal" in2="BackgroundImageFix" result="effect1_dropShadow_0_163"/>
<feBlend mode="normal" in="SourceGraphic" in2="effect1_dropShadow_0_163" result="shape"/>
</filter>
<clipPath id="clip0_0_163">
<rect width="20" height="20" fill="white" transform="translate(165 68)"/>
</clipPath>
</defs>
</svg>
