<svg width="38" height="38" viewBox="0 0 38 38" fill="none" xmlns="http://www.w3.org/2000/svg">
<rect width="38" height="38" rx="5" fill="#8093A6"/>
<g clip-path="url(#clip0_0_22)">
<path d="M22.5796 5C23.0922 5.10979 23.6076 5.20796 24.1166 5.33232C24.7441 5.48563 24.8692 5.79933 24.5511 6.37289C24.123 7.14494 23.6932 7.916 23.255 8.70379C23.8161 8.90584 24.2204 9.26115 24.387 9.83889C24.5501 10.4044 24.4242 10.9182 24.0812 11.3614C26.7591 13.1711 28.1282 15.7054 28.3576 18.9231C28.8194 18.6208 29.2786 18.3161 29.7419 18.018C30.3768 17.6094 31.046 17.5451 31.7496 17.8251C32.3529 18.0656 33.0108 18.818 32.9999 19.6842C32.9905 20.422 32.7378 20.9759 32.2141 21.4639C30.0846 23.4482 27.9614 25.4392 25.8445 27.437C25.2282 28.0183 24.516 28.2915 23.6686 28.2874C21.1244 28.275 18.58 28.2829 15.9997 28.2829C16.0443 28.3431 16.0707 28.3828 16.1012 28.4193C16.3548 28.7232 16.3508 28.9767 16.0763 29.2655C15.8815 29.4705 15.6778 29.6671 15.4779 29.8672C14.5297 30.8161 13.5813 31.7649 12.6329 32.7135C12.2496 33.0964 11.9974 33.0955 11.6126 32.7106C9.50291 30.6002 7.3936 28.4894 5.28467 26.3783C4.90254 25.9957 4.90497 25.7469 5.29292 25.3583C6.40839 24.2411 7.52425 23.1244 8.64052 22.008C9.0372 21.6112 9.2528 21.5993 9.65734 21.9775C9.76695 22.08 9.82277 22.0572 9.91893 21.9716C10.4298 21.5165 10.9441 21.0652 11.4616 20.6177C12.1708 19.9989 13.0038 19.5387 13.905 19.2681C14.0329 19.2296 14.0938 19.1896 14.0996 19.0353C14.2224 15.778 15.5972 13.2121 18.3295 11.401C18.3366 11.3954 18.3433 11.3892 18.3495 11.3824C17.598 10.4056 17.9941 9.11194 19.1635 8.70197C18.9968 8.40056 18.8324 8.10246 18.6673 7.80478C18.3802 7.28734 18.0894 6.772 17.8065 6.2523C17.579 5.83449 17.7151 5.4922 18.1756 5.37566C18.6687 5.25083 19.1704 5.15985 19.6681 5.05261C19.7272 5.03987 19.7843 5.01777 19.8424 5L22.5796 5ZM19.4678 27.1873C20.8816 27.1873 22.2955 27.1806 23.7093 27.1907C23.9597 27.1987 24.2091 27.156 24.4426 27.0651C24.6761 26.9741 24.8888 26.8369 25.0679 26.6616C26.0137 25.7629 26.9697 24.875 27.9215 23.9826C29.1263 22.8531 30.3314 21.7239 31.5367 20.595C31.8372 20.3144 32.0063 19.9873 31.919 19.5718C31.7662 18.8448 30.9752 18.523 30.3376 18.9384C28.613 20.0619 26.896 21.1971 25.1722 22.3219C25.0436 22.4058 25.0255 22.4926 25.0339 22.6351C25.1059 23.8565 24.2353 24.9292 23.0445 24.977C21.6966 25.0312 20.345 25.0006 18.9951 24.9889C18.9054 24.9876 18.8176 24.9635 18.7397 24.9189C18.6618 24.8744 18.5965 24.8108 18.5498 24.7342C18.5031 24.6575 18.4766 24.5703 18.4727 24.4806C18.4688 24.3909 18.4877 24.3017 18.5276 24.2213C18.6439 23.9783 18.8497 23.8977 19.1097 23.8985C20.332 23.9024 21.5543 23.9028 22.7766 23.8996C23.4608 23.8984 23.9516 23.4325 23.9474 22.7958C23.9433 22.1679 23.4597 21.7125 22.7879 21.7095C22.1494 21.7068 21.5097 21.6848 20.8726 21.7157C20.2381 21.7466 19.715 21.553 19.2055 21.1733C17.0921 19.598 14.2134 19.7115 12.2088 21.422C11.7092 21.8483 11.224 22.2916 10.7204 22.7129C10.5603 22.8468 10.5968 22.9169 10.7234 23.0427C12.0562 24.3681 13.3812 25.7014 14.7166 27.024C14.8186 27.1185 14.9506 27.1738 15.0894 27.1804C16.5488 27.1912 18.0083 27.1873 19.4678 27.1873ZM27.2461 18.9517C27.2259 18.7065 27.216 18.4598 27.1837 18.2162C26.8824 15.9409 25.8661 14.06 24.024 12.677C22.6642 11.6562 21.1556 11.3744 19.5412 12.0252C18.5468 12.426 17.7476 13.0993 17.0792 13.9271C15.9362 15.3429 15.2748 16.9501 15.1908 18.7805C15.1847 18.9135 15.1669 19.0073 15.3783 18.9927C17.0318 18.8786 18.5294 19.3228 19.8727 20.2927C19.998 20.3831 20.1154 20.4982 20.2555 20.5504C20.376 20.5951 20.56 20.6188 20.6504 20.5566C20.7631 20.479 20.6258 19.985 20.5222 19.9127C20.2485 19.7213 19.9625 19.5396 19.721 19.312C19.4579 19.0641 19.4742 18.7342 19.7073 18.5132C19.9392 18.2934 20.2538 18.3142 20.5083 18.5649C20.5831 18.6447 20.6628 18.7198 20.7469 18.7896C21.0179 18.996 21.2848 19.0271 21.5049 18.8772C21.7147 18.7342 21.8001 18.5323 21.7382 18.2837C21.6723 18.0188 21.4761 17.896 21.1079 17.8712C21.0988 17.8705 21.0897 17.8707 21.0806 17.8699C20.7563 17.842 20.4474 17.7191 20.1925 17.5166C19.9375 17.3141 19.7478 17.0409 19.647 16.7312C19.4436 16.1027 19.614 15.3461 20.1655 14.9901C20.568 14.7303 20.7236 14.4636 20.6771 13.9993C20.6482 13.7122 20.9284 13.4921 21.2123 13.4929C21.3505 13.4934 21.4833 13.5465 21.5839 13.6413C21.6845 13.7361 21.7454 13.8656 21.7541 14.0036C21.767 14.1492 21.7675 14.2956 21.7555 14.4413C21.7405 14.6066 21.791 14.6889 21.9525 14.7662C22.1714 14.8765 22.3739 15.017 22.5539 15.1835C22.6063 15.2282 22.6493 15.283 22.6803 15.3446C22.7112 15.4062 22.7295 15.4734 22.7341 15.5422C22.7386 15.611 22.7294 15.68 22.7068 15.7452C22.6843 15.8103 22.6489 15.8703 22.6028 15.9215C22.4094 16.1545 22.105 16.1854 21.8433 16.002C21.7146 15.902 21.5783 15.8123 21.4356 15.7337C21.2166 15.6273 21.0052 15.675 20.832 15.8431C20.7558 15.91 20.7017 15.9985 20.6768 16.0968C20.6519 16.1952 20.6574 16.2987 20.6925 16.3939C20.7242 16.4997 20.7877 16.5931 20.8744 16.6614C20.9611 16.7298 21.0668 16.7697 21.177 16.7758C21.2222 16.7807 21.2681 16.7785 21.3136 16.7815C21.6569 16.8044 21.9844 16.9342 22.2503 17.1526C22.5163 17.371 22.7073 17.6671 22.7968 17.9996C22.978 18.7035 22.7157 19.45 22.0821 19.7934C21.7792 19.9576 21.7403 20.1499 21.7534 20.4338C21.7598 20.5728 21.7886 20.6221 21.9352 20.6168C22.2449 20.6055 22.5554 20.6096 22.8654 20.6147C23.4662 20.6247 23.9899 20.8332 24.4058 21.2689C24.5283 21.3971 24.6017 21.3986 24.7408 21.305C25.3679 20.8831 25.9875 20.4464 26.6404 20.0679C27.0946 19.8046 27.3461 19.4906 27.2461 18.9517ZM9.16168 23.0474C9.09591 23.1097 9.04241 23.158 8.99153 23.2089C8.15989 24.0406 7.33155 24.8757 6.49417 25.7016C6.35997 25.8339 6.35572 25.9055 6.49245 26.0416C8.32133 27.8618 10.1455 29.6867 11.9651 31.5163C12.0927 31.6445 12.1574 31.6443 12.2836 31.5163C13.1156 30.6721 13.9535 29.8337 14.7974 29.0013C14.932 28.8686 14.9369 28.797 14.7992 28.6618C14.0383 27.9142 13.2877 27.156 12.5336 26.4014C11.4701 25.3372 10.4066 24.2731 9.34285 23.2092C9.2871 23.1534 9.22521 23.1039 9.16168 23.0474ZM19.0714 6.27497C19.4631 6.98078 19.8431 7.67305 20.2354 8.35825C20.2664 8.41237 20.3828 8.44027 20.4601 8.44139C20.9596 8.4486 21.4594 8.44969 21.9588 8.4402C22.0407 8.43864 22.1611 8.39776 22.1965 8.33629C22.5862 7.65969 22.9626 6.97541 23.3535 6.2736C21.9428 5.96471 20.4819 5.96518 19.0714 6.27497ZM21.2223 9.42459C20.6271 9.54162 20.0369 9.63948 19.4567 9.77898C19.1397 9.85519 18.9947 10.1723 19.0828 10.4678C19.1665 10.7483 19.4429 10.888 19.7561 10.7985C20.7044 10.518 21.7137 10.5189 22.6615 10.8012C22.8617 10.8603 23.0365 10.8443 23.1909 10.6995C23.2631 10.6325 23.3157 10.547 23.3429 10.4522C23.3701 10.3575 23.371 10.2571 23.3453 10.1619C23.3197 10.0667 23.2686 9.98029 23.1974 9.91205C23.1263 9.84382 23.0379 9.79632 22.9418 9.77468C22.3818 9.63018 21.8076 9.54102 21.2223 9.42459Z" fill="white"/>
<path d="M17.3773 24.4403C17.3788 24.5489 17.348 24.6555 17.2886 24.7465C17.2293 24.8375 17.1442 24.9087 17.0442 24.9511C16.9443 24.9935 16.8339 25.005 16.7274 24.9844C16.6208 24.9637 16.5228 24.9116 16.4459 24.8349C16.369 24.7582 16.3167 24.6603 16.2957 24.5537C16.2746 24.4472 16.2859 24.3367 16.3279 24.2365C16.3699 24.1364 16.4408 24.051 16.5315 23.9913C16.6223 23.9317 16.7287 23.9004 16.8373 23.9016C16.9793 23.9045 17.1148 23.9621 17.2154 24.0624C17.316 24.1628 17.374 24.2981 17.3773 24.4403Z" fill="white"/>
</g>
<defs>
<clipPath id="clip0_0_22">
<rect width="28" height="28" fill="white" transform="translate(5 5)"/>
</clipPath>
</defs>
</svg>
