<svg width="38" height="38" viewBox="0 0 38 38" fill="none" xmlns="http://www.w3.org/2000/svg">
<rect width="38" height="38" rx="5" fill="#8093A6"/>
<g clip-path="url(#clip0_0_15)">
<path d="M4.99997 18.1257C5.23736 17.4155 5.73485 17.089 6.47532 17.1527C6.71822 17.1736 6.73242 17.0632 6.7309 16.8712C6.72517 16.149 7.02577 15.6955 7.61317 15.5353C7.75472 15.5025 7.89994 15.4881 8.04519 15.4927C9.11138 15.4893 10.1776 15.4855 11.2437 15.4958C11.4318 15.4976 11.5085 15.4441 11.5627 15.2626C11.8843 14.1964 12.4363 13.2138 13.1797 12.3846C13.3308 12.2133 13.5067 12.1547 13.7139 12.2602C13.9031 12.3565 13.9573 12.5283 13.9072 12.723C13.8777 12.8086 13.8296 12.8864 13.7662 12.951C12.8329 14.0095 12.2433 15.3268 12.0756 16.7281C12.0549 16.8167 12.0491 16.9081 12.0586 16.9986C12.0717 17.0562 12.145 17.1083 12.2029 17.1444C12.2357 17.1649 12.2917 17.1482 12.3372 17.1482C16.7752 17.1482 21.2131 17.1503 25.6511 17.1545C25.9089 17.1551 25.9627 17.0867 25.9388 16.8424C25.6185 13.5648 22.8893 10.8827 19.6217 10.6215C18.0867 10.4846 16.5495 10.8582 15.2486 11.6844C14.9629 11.8625 14.7183 11.8366 14.5816 11.6161C14.4462 11.3979 14.5188 11.1849 14.7988 11.0049C15.8544 10.3155 17.0676 9.90512 18.3249 9.81206C18.5336 9.79656 18.5964 9.73537 18.5947 9.52135C18.5841 8.20902 18.5887 6.89655 18.5897 5.58414C18.5901 5.12004 18.7092 5.00148 19.169 5.00138C20.6909 5.00106 22.2127 5.0006 23.7346 5.00001C23.9402 4.9997 24.1412 4.99696 24.2611 5.2055C24.3868 5.42394 24.2803 5.60462 24.1666 5.78659C24.0413 5.98701 23.9428 6.20765 23.7966 6.3908C23.5562 6.6921 23.5266 6.95899 23.7883 7.26932C23.9497 7.46692 24.0814 7.68695 24.1794 7.92251C24.2483 8.08287 24.2968 8.29039 24.2547 8.45062C24.1994 8.6612 23.9744 8.66922 23.7736 8.66876C22.4067 8.66561 21.0398 8.67186 19.6729 8.66211C19.4619 8.66061 19.3853 8.71002 19.4045 8.92844C19.4283 9.199 19.3198 9.55829 19.4566 9.71975C19.5883 9.87518 19.9614 9.81948 20.2259 9.86991C23.3202 10.46 25.38 12.2548 26.4236 15.2188C26.4944 15.4197 26.5607 15.5011 26.7897 15.4977C27.8465 15.4821 28.9037 15.489 29.9608 15.4914C30.7803 15.4933 31.2728 15.9759 31.2602 16.8006C31.2559 17.0826 31.3253 17.1618 31.6129 17.1557C32.5165 17.1365 32.9944 17.6267 32.9949 18.5295C32.9952 19.0217 32.9984 19.5139 32.9938 20.006C32.9894 20.4824 32.7813 20.8495 32.3621 21.0772C32.2276 21.1503 32.1949 21.2338 32.1951 21.376C32.1989 24.2014 32.1984 27.0267 32.1936 29.852C32.1933 30.0056 32.2496 30.074 32.3738 30.1431C32.7819 30.3702 32.9846 30.7295 32.993 31.1938C33.008 31.4577 33.0023 31.7223 32.976 31.9853C32.9012 32.5175 32.5283 32.8043 32.0654 33H5.92949C5.71546 32.9234 5.52107 32.8003 5.36034 32.6396C5.19961 32.4788 5.07653 32.2844 4.99997 32.0703V30.9219C5.14057 30.6179 5.27844 30.3041 5.60343 30.1542C5.77623 30.0745 5.80405 29.9626 5.80289 29.7926C5.79596 28.772 5.79915 27.7513 5.79997 26.7306C5.80004 26.6397 5.77347 26.5235 5.81843 26.4632C5.91301 26.3362 6.03557 26.171 6.16803 26.1487C6.2877 26.1286 6.46211 26.2534 6.56208 26.3611C6.62751 26.4315 6.61659 26.5851 6.61715 26.7016C6.62114 27.5309 6.61663 28.3602 6.62083 29.1895C6.62214 29.4497 6.54763 29.7936 6.68179 29.9444C6.79689 30.0737 7.16103 29.972 7.41358 29.9914C7.60087 30.0059 7.66297 29.951 7.65964 29.7546C7.64771 29.0531 7.65325 28.3513 7.65539 27.6496C7.65842 26.6564 7.62876 25.6615 7.67802 24.6705C7.73889 23.4459 8.97409 22.5513 10.175 22.8089C11.2127 23.0315 11.8712 23.8673 11.8741 24.9818C11.8783 26.5675 11.877 28.1531 11.8701 29.7388C11.8689 29.9435 11.9181 30.0018 12.1246 29.9934C12.5522 29.9759 12.9817 29.9728 13.4089 29.9941C13.6471 30.006 13.7089 29.9442 13.7069 29.7002C13.6943 28.1055 13.6929 26.5108 13.7028 24.916C13.7119 23.4918 14.9734 22.4989 16.3315 22.8304C17.273 23.0603 17.9108 23.8927 17.9154 24.9267C17.9224 26.5305 17.9214 28.1344 17.9123 29.7383C17.9111 29.9449 17.9646 30.0012 18.1694 29.9932C18.597 29.9764 19.0266 29.9724 19.4537 29.9941C19.703 30.0067 19.7665 29.9348 19.7648 29.6846C19.7534 28.0534 19.7487 26.422 19.765 24.791C19.7759 23.6953 20.709 22.7892 21.8035 22.7702C22.0865 22.7609 22.3684 22.809 22.6323 22.9115C22.8961 23.014 23.1366 23.1689 23.339 23.3668C23.5415 23.5647 23.7019 23.8015 23.8104 24.063C23.919 24.3244 23.9736 24.6052 23.9708 24.8883C23.979 26.5104 23.9782 28.1325 23.9682 29.7546C23.9673 29.9472 24.016 29.9993 24.2079 29.993C24.663 29.9778 25.1193 29.9775 25.5744 29.993C25.7735 29.9998 25.8155 29.9317 25.8117 29.7467C25.8004 29.1819 25.806 28.6168 25.8079 28.0518C25.8118 26.9219 25.7805 25.7904 25.8326 24.6627C25.8887 23.4501 27.1207 22.5567 28.3086 22.8043C29.3506 23.0214 30.0222 23.8563 30.0264 24.9625C30.0324 26.5572 30.0316 28.152 30.024 29.7468C30.0232 29.9292 30.0569 30.0054 30.2582 29.9928C30.5492 29.9733 30.8412 29.9735 31.1322 29.9933C31.3472 30.0088 31.3833 29.9307 31.3829 29.7338C31.3764 26.9817 31.3762 24.2296 31.3824 21.4774C31.3828 21.2967 31.3524 21.231 31.1511 21.2311C23.0507 21.2367 14.9503 21.2367 6.8499 21.2313C6.65387 21.2312 6.61307 21.288 6.61482 21.474C6.62423 22.4764 6.62015 23.4788 6.618 24.4813C6.62283 24.5903 6.6123 24.6994 6.58673 24.8054C6.52722 25.0062 6.37521 25.0954 6.16881 25.0791C6.08107 25.0779 5.99675 25.0449 5.93151 24.9862C5.86628 24.9276 5.82456 24.8472 5.81413 24.76C5.80121 24.6699 5.79649 24.5788 5.80001 24.4877C5.79914 23.458 5.80201 22.4282 5.7951 21.3985C5.79448 21.3054 5.7595 21.1623 5.6951 21.1282C5.33249 20.9363 5.13007 20.6293 4.99997 20.2584L4.99997 18.1257ZM18.9727 20.4156H24.6585C26.9638 20.4156 29.2691 20.4156 31.5744 20.4155C32.0746 20.4155 32.1747 20.3135 32.1748 19.805C32.1749 19.404 32.1749 19.003 32.1748 18.6021C32.1748 18.0598 32.0837 17.9685 31.5421 17.9685C23.1775 17.9684 14.8128 17.9684 6.44814 17.9684C6.39347 17.9684 6.33875 17.967 6.28414 17.9687C5.96215 17.9792 5.82309 18.1183 5.8209 18.443C5.81782 18.8987 5.82002 19.3543 5.82013 19.81C5.82025 20.3144 5.92116 20.4155 6.42574 20.4156C10.6081 20.4156 14.7904 20.4157 18.9727 20.4156ZM18.9974 30.8084C14.7781 30.8084 10.5589 30.8084 6.33966 30.8086C5.94157 30.8086 5.82212 30.9296 5.82017 31.3281C5.81976 31.4101 5.82008 31.4921 5.82011 31.5742C5.82031 32.0825 5.91675 32.1797 6.42222 32.1797C14.7422 32.1797 23.0622 32.1797 31.3822 32.1797C32.1545 32.1797 32.1757 32.1584 32.1748 31.3822C32.1743 30.9088 32.0742 30.8084 31.6004 30.8084C27.3994 30.8083 23.1984 30.8083 18.9974 30.8084ZM17.0972 27.2977C17.0972 26.4957 17.1044 25.6936 17.0951 24.8917C17.0864 24.1384 16.5311 23.5866 15.8049 23.5891C15.0884 23.5915 14.5257 24.1587 14.5226 24.9071C14.5158 26.5293 14.524 28.1516 14.5156 29.7737C14.5146 29.9668 14.5847 29.9933 14.751 29.9915C15.4526 29.9835 16.1546 29.9775 16.8558 29.9943C17.0766 29.9997 17.1039 29.9214 17.1016 29.731C17.0918 28.92 17.0974 28.1088 17.0972 27.2977ZM20.5785 27.278C20.5785 28.1062 20.583 28.9345 20.5748 29.7627C20.5731 29.9331 20.6065 29.9962 20.7946 29.993C21.5042 29.9808 22.2139 29.9809 22.9238 29.9933C23.123 29.997 23.158 29.9329 23.1572 29.7494C23.1499 28.1475 23.1548 26.5457 23.1521 24.9438C23.1508 24.1571 22.6013 23.5865 21.8575 23.5891C21.1258 23.5915 20.5829 24.1577 20.5793 24.9298C20.5757 25.7125 20.5785 26.4953 20.5785 27.278ZM11.0552 27.3127C11.0552 26.5198 11.0613 25.7269 11.0535 24.9341C11.0458 24.1585 10.4978 23.5918 9.76997 23.5893C9.03682 23.5868 8.48158 24.1436 8.47731 24.9193C8.46837 26.5415 8.47738 28.1638 8.47025 29.786C8.46947 29.9643 8.53203 29.9933 8.69078 29.9915C9.41057 29.9837 10.1306 29.982 10.8503 29.9925C11.0273 29.995 11.0602 29.9343 11.0587 29.7734C11.0513 28.9532 11.0553 28.1329 11.0552 27.3127ZM26.6363 27.309L26.6274 27.309C26.6274 28.1201 26.6358 28.9314 26.6217 29.7423C26.618 29.9557 26.6845 29.9963 26.8822 29.9928C27.5745 29.9806 28.2674 29.979 28.9596 29.9936C29.1696 29.998 29.2141 29.9358 29.213 29.735C29.2045 28.1493 29.2105 26.5635 29.205 24.9777C29.206 24.805 29.1808 24.6332 29.1303 24.4681C29.0383 24.1838 28.8495 23.9408 28.5969 23.7813C28.3442 23.6219 28.0436 23.5562 27.7475 23.5956C27.1656 23.6594 26.6625 24.1589 26.6431 24.7669C26.616 25.6134 26.6363 26.4616 26.6363 27.309ZM23.187 5.82163C21.9415 5.82163 20.7437 5.82435 19.5459 5.81852C19.3774 5.81769 19.4092 5.91893 19.4091 6.01405C19.4084 6.55067 19.4155 7.08742 19.4048 7.62383C19.4014 7.79639 19.4411 7.85294 19.6253 7.85144C20.7528 7.84223 21.8805 7.84705 23.0082 7.84606C23.0636 7.8424 23.1187 7.8357 23.1734 7.82599C23.0172 7.56678 22.8787 7.33394 22.7372 7.10286C22.6826 7.02401 22.6534 6.93032 22.6536 6.83438C22.6538 6.73845 22.6834 6.64487 22.7383 6.56624C22.8825 6.33684 23.0185 6.10227 23.187 5.82163ZM9.36544 17.1482H10.5941C11.2084 17.1482 11.2018 17.1473 11.2837 16.5493C11.3097 16.3588 11.2681 16.304 11.0682 16.3063C10.1036 16.317 9.13883 16.311 8.17411 16.3111C7.62171 16.3112 7.54395 16.3976 7.54242 16.942C7.54194 17.1112 7.58697 17.1557 7.75463 17.1523C8.29137 17.1412 8.82848 17.1482 9.36544 17.1482ZM28.5897 17.1482C29.1448 17.1482 29.6999 17.15 30.2549 17.1456C30.3177 17.1452 30.4169 17.1286 30.4372 17.0883C30.4794 17.0055 30.4993 16.9131 30.4949 16.8203C30.4904 16.7275 30.4619 16.6374 30.412 16.559C30.3621 16.4806 30.2927 16.4165 30.2105 16.3732C30.1283 16.3298 30.0362 16.3087 29.9434 16.3118C29.0243 16.3096 28.1053 16.3111 27.1863 16.3111C26.7058 16.3111 26.706 16.3111 26.752 16.7782C26.7604 16.8322 26.7631 16.887 26.7601 16.9415C26.7403 17.1123 26.8151 17.155 26.9792 17.1519C27.5159 17.1419 28.0529 17.1482 28.5897 17.1482Z" fill="white"/>
</g>
<defs>
<clipPath id="clip0_0_15">
<rect width="28" height="28" fill="white" transform="translate(5 5)"/>
</clipPath>
</defs>
</svg>
