<svg width="38" height="38" viewBox="0 0 38 38" fill="none" xmlns="http://www.w3.org/2000/svg">
<rect width="38" height="38" rx="5" transform="matrix(-1 0 0 1 38 0)" fill="#8093A6"/>
<g clip-path="url(#clip0_0_29)">
<path d="M4.99997 10.9062V31.6328C5.0182 31.6472 5.05375 31.6642 5.052 31.6754C5.04265 31.7885 5.06997 31.9015 5.12993 31.9978C5.25772 32.2367 5.39306 32.4656 5.63173 32.6372C5.856 32.7985 6.07569 32.9226 6.34776 32.9553C6.3559 32.9563 6.36077 32.9845 6.36716 33H25.0703C25.1071 32.8837 25.2077 32.9697 25.2741 32.9363C25.4605 32.8515 25.6394 32.751 25.8088 32.636C25.9856 32.4979 26.1316 32.3244 26.2375 32.1266C26.3723 31.8949 26.4416 31.631 26.4379 31.363C26.4372 27.7739 26.4371 24.1848 26.4375 20.5957V20.3125C26.739 20.3125 27.0286 20.3127 27.3181 20.3123C27.3813 20.3122 27.4654 20.3351 27.5035 20.3035C27.5874 20.2338 27.6753 20.2721 27.7599 20.2574C27.8511 20.2329 27.9441 20.2158 28.038 20.206C28.2579 20.2035 28.4651 20.1319 28.6667 20.0697C29.1296 19.9358 29.5738 19.7443 29.989 19.4998C30.3482 19.2761 30.6922 19.029 31.0188 18.7599C31.3603 18.484 31.6319 18.1344 31.8858 17.7807C32.22 17.3308 32.4808 16.8308 32.6584 16.2992C32.7611 15.975 32.8833 15.6515 32.8943 15.3019C32.8974 15.2031 32.9451 15.1057 32.9737 15.0081C32.9744 15.0057 32.9909 15.0078 33 15.0078V14.7344L32.9453 14.693L33 14.625V13.9688L32.9453 13.9274L33 13.8594V13.5859C32.9555 13.4725 32.9191 13.356 32.8909 13.2375C32.8959 13.0177 32.816 12.8123 32.7541 12.6104C32.6133 12.151 32.4422 11.7038 32.1853 11.2884C31.9413 10.8883 31.6615 10.5112 31.3494 10.1616C31.1182 9.91616 30.8633 9.69418 30.5884 9.49883C30.1977 9.1954 29.7655 8.94948 29.305 8.76858C29.188 8.72171 29.0783 8.65607 28.9605 8.61125C28.8427 8.56409 28.7207 8.52787 28.5962 8.50306C28.4711 8.4782 28.3477 8.44516 28.2268 8.40416C28.1032 8.36472 27.9606 8.42623 27.8452 8.33594C27.5862 8.35207 27.3375 8.25288 27.0753 8.27739C26.8693 8.29664 26.66 8.28125 26.4375 8.28125V8.16581C26.4375 7.64677 26.4375 7.12773 26.4375 6.6087C26.4338 6.38463 26.3799 6.16426 26.2796 5.96386C26.1708 5.71966 26.0014 5.50733 25.7874 5.34708C25.5847 5.188 25.3445 5.08388 25.0898 5.04482C25.0814 5.04364 25.0767 5.01555 25.0703 5H10.9062C10.8514 5.09417 10.7334 5.08291 10.6525 5.15135C10.5746 5.21728 10.4942 5.28835 10.4153 5.35671C10.3329 5.42804 10.2597 5.50986 10.1824 5.58709C8.65063 7.11887 7.11885 8.65066 5.58707 10.1824C5.50983 10.2597 5.42801 10.3329 5.35668 10.4153C5.28833 10.4942 5.21726 10.5746 5.15133 10.6525C5.08289 10.7335 5.09413 10.8514 4.99997 10.9062ZM11.5625 6.09375H24.6894C24.7167 6.0921 24.7441 6.09225 24.7713 6.09423C25.1207 6.14137 25.3228 6.30851 25.3373 6.65947C25.361 7.23261 25.3428 7.80745 25.3446 8.38157C25.3449 8.48702 25.3071 8.52657 25.1971 8.56029C24.728 8.70409 24.2706 8.88294 23.8598 9.15762C23.4894 9.40532 23.1233 9.66051 22.8037 9.97444C22.6511 10.1244 22.5112 10.2854 22.3727 10.4495C22.0897 10.8069 21.8384 11.1883 21.6216 11.5894C21.431 11.9761 21.28 12.3812 21.171 12.7984C21.064 13.1813 20.9991 13.5747 20.9772 13.9716C20.9517 14.2929 20.9631 14.6161 21.0112 14.9347C21.0616 15.2327 21.1135 15.5277 21.1811 15.8231C21.2792 16.217 21.4163 16.6002 21.5905 16.9669C21.6504 17.0887 21.7168 17.2072 21.7893 17.322C22.0161 17.7028 22.2791 18.0608 22.5747 18.3909C22.8463 18.6864 23.1502 18.9503 23.4808 19.1777C23.6924 19.337 23.9158 19.4799 24.1491 19.6052C24.493 19.7856 24.8544 19.9306 25.2277 20.0378C25.2633 20.0424 25.2955 20.0611 25.3173 20.0895C25.3392 20.118 25.3488 20.1539 25.3441 20.1895C25.3421 20.2441 25.3437 20.2988 25.3437 20.3535V31.2072C25.3437 31.2618 25.3473 31.3168 25.3431 31.3712C25.3266 31.5094 25.2633 31.6378 25.1637 31.735C25.0641 31.8323 24.9342 31.8926 24.7957 31.9059C24.7411 31.9085 24.6863 31.9062 24.6316 31.9062H6.80634C6.74255 31.9062 6.67178 31.9241 6.61648 31.9024C6.51506 31.8626 6.40341 31.8576 6.31225 31.7753C6.14761 31.6267 6.09239 31.4487 6.09244 31.235C6.09401 24.7374 6.09455 18.2398 6.09407 11.7422C6.09407 11.6819 6.09938 11.6217 6.10216 11.5625H10.8511C10.9056 11.5672 10.9604 11.5666 11.0148 11.5606C11.1058 11.5419 11.2135 11.5348 11.2802 11.4808C11.4462 11.3465 11.5705 11.1961 11.5685 10.9447C11.5564 9.42288 11.5625 7.90095 11.5625 6.37906V6.09375ZM27.5312 9.42969C27.6121 9.42565 27.6931 9.42634 27.7738 9.43176C27.8404 9.4403 27.9039 9.47744 27.9702 9.48203C28.1057 9.50033 28.2389 9.53308 28.3674 9.57974C28.5303 9.62661 28.6848 9.69229 28.8424 9.7524C29.088 9.8445 29.3232 9.96206 29.5442 10.1032C29.7786 10.2542 30.0261 10.388 30.2107 10.6052C30.5291 10.761 30.6615 11.1029 30.9218 11.3168C31.1386 11.6994 31.3795 12.0644 31.5507 12.4771C31.748 12.9526 31.8218 13.4461 31.9027 13.9425C31.9216 14.0873 31.9217 14.2339 31.9031 14.3787C31.8883 14.5261 31.9376 14.6711 31.8612 14.8256C31.8042 14.9409 31.8303 15.0973 31.8067 15.237C31.7352 15.66 31.5808 16.0475 31.4253 16.393C31.2861 16.7065 31.105 16.9997 30.8868 17.2645C30.7244 17.4605 30.5884 17.6804 30.3981 17.8514C30.2495 17.9851 30.0794 18.0945 29.9244 18.2215C29.5183 18.5468 29.055 18.7935 28.5585 18.949C28.3505 19.0268 28.1353 19.0839 27.9161 19.1195C27.8265 19.1306 27.7321 19.1559 27.6371 19.1658C27.5346 19.1764 27.4339 19.2125 27.3316 19.2163C27.1135 19.2317 26.8946 19.2307 26.6766 19.2133C26.4634 19.1889 26.2489 19.147 26.0369 19.1193C25.7268 19.0788 25.4493 18.9404 25.1473 18.8856C24.5738 18.6043 24.0272 18.281 23.5593 17.8407C23.4441 17.7324 23.3596 17.5918 23.2468 17.4805C22.9714 17.2088 22.8032 16.8665 22.6107 16.5406C22.407 16.1961 22.2958 15.8118 22.1949 15.4302C22.1462 15.2461 22.0624 15.047 22.1353 14.8438H26.8164C26.8799 14.8488 26.9438 14.848 27.0072 14.8415C27.0917 14.8336 27.1736 14.8078 27.2474 14.7659C27.3387 14.7037 27.4127 14.6195 27.4627 14.5211C27.5127 14.4226 27.5371 14.3132 27.5335 14.2028C27.5276 13.3741 27.5312 12.5453 27.5312 11.7165V9.42969ZM22.1129 13.7442C22.1295 13.6074 22.0826 13.4795 22.1718 13.3704C22.193 13.0504 22.3089 12.7617 22.4341 12.4689C22.6725 11.9111 22.7204 11.8148 23.0691 11.3377C23.1641 11.2077 23.2844 11.1054 23.3765 10.9761C23.44 10.8804 23.5146 10.7926 23.5987 10.7143C23.7566 10.5773 23.9227 10.4488 24.0931 10.3276C24.2672 10.2038 24.4461 10.0855 24.6306 9.97814C25.0109 9.75803 25.4231 9.59836 25.8524 9.50486C26.0388 9.46375 26.2355 9.37368 26.4296 9.44487V13.7442L22.1129 13.7442ZM6.92544 10.4641L10.4593 6.93021V10.4641H6.92544Z" fill="white"/>
<path d="M33 13.8594L32.9453 13.9274L33 13.9688V13.8594Z" fill="white"/>
<path d="M33 14.625L32.9453 14.693L33 14.7344V14.625Z" fill="white"/>
<path d="M22.6218 29.3962C22.9716 29.3478 23.3034 29.2838 23.5994 29.0433C23.9044 28.8041 24.1182 28.4673 24.2049 28.0894C24.2557 27.9102 24.2674 27.722 24.239 27.5378C24.2018 27.3445 24.1712 27.1356 24.0419 26.9654C23.9128 26.7956 23.8175 26.6101 23.6253 26.4801C23.4674 26.363 23.2945 26.2677 23.1113 26.1964C22.7899 26.0808 22.4384 26.0796 22.1162 26.1932C22.0526 26.2148 21.9887 26.2689 21.9302 26.2622C21.8809 26.2566 21.8315 26.19 21.7953 26.1408C21.5863 25.8564 21.3032 25.6388 21.0856 25.3666C20.9046 25.1401 20.6806 24.9583 20.5024 24.7347C20.3318 24.5272 20.1499 24.3293 19.9576 24.1417C19.9181 24.1019 19.9327 24.073 19.9563 24.0272C19.9987 23.9538 20.0256 23.8725 20.0354 23.7882C20.0459 23.5942 20.1398 23.4066 20.0923 23.2101C20.0243 22.9294 19.9563 22.6562 19.7723 22.4109C19.6027 22.1808 19.3769 21.9982 19.1164 21.8806C18.61 21.6486 18.1032 21.6847 17.6306 21.9584C17.4335 22.0749 17.2628 22.2312 17.1294 22.4173C16.9959 22.6034 16.9026 22.8152 16.8555 23.0393C16.776 23.3953 16.8531 23.7084 16.9541 24.0273C16.9697 24.0624 16.9738 24.1014 16.966 24.139C16.9582 24.1765 16.9388 24.2107 16.9106 24.2366C16.6969 24.4798 16.4958 24.7337 16.308 24.9973C16.2247 25.1111 16.1349 25.2201 16.0391 25.3237C15.8227 25.5764 15.6107 25.8324 15.4198 26.1057C15.3322 26.2311 15.2752 26.2427 15.1216 26.1958C14.7615 26.0858 14.71 26.0864 14.3049 26.1617C14.2658 26.1724 14.2246 26.1719 14.1858 26.1602C14.147 26.1485 14.1124 26.1261 14.0857 26.0956C13.8949 25.8877 13.6666 25.7109 13.4954 25.4891C13.2787 25.2086 12.9983 24.9924 12.778 24.7208C12.5388 24.4258 12.2434 24.1836 12.008 23.8906C11.8034 23.6361 11.5511 23.4315 11.3468 23.1819C11.095 22.8742 10.8088 22.601 10.5336 22.3164C10.4802 22.2612 10.4473 22.1863 10.3953 22.1293C10.3627 22.0935 10.3743 22.0837 10.3967 22.0489C10.5097 21.8599 10.5853 21.651 10.6196 21.4335C10.6574 21.2499 10.6472 21.0596 10.5898 20.8812C10.5364 20.7216 10.5199 20.5479 10.4217 20.4034C10.3017 20.2269 10.221 20.0145 10.0005 19.9263C9.80595 19.672 9.49163 19.6613 9.22832 19.5469C8.79302 19.5329 8.39038 19.6017 8.02243 19.875C7.79267 20.0446 7.61052 20.2706 7.49356 20.5312C7.36369 20.8013 7.31621 21.1038 7.35704 21.4007C7.38626 21.5847 7.44387 21.7631 7.52783 21.9294C7.6043 22.0859 7.70852 22.2272 7.83541 22.3464C8.07092 22.5606 8.3284 22.7365 8.66694 22.7796C8.98509 22.82 8.98155 22.8391 9.30629 22.776C9.34515 22.7647 9.38639 22.7645 9.42535 22.7755C9.4643 22.7864 9.49941 22.8081 9.52668 22.838C9.71883 23.0448 9.94535 23.2228 10.1178 23.4439C10.3412 23.7302 10.6286 23.953 10.8535 24.2322C11.0863 24.5213 11.3769 24.755 11.6055 25.042C11.8204 25.3117 12.0884 25.5268 12.3042 25.7903C12.5447 26.0839 12.8164 26.3456 13.0792 26.6168C13.1367 26.6818 13.1883 26.7518 13.2334 26.826C13.2411 26.8374 13.2314 26.8663 13.2219 26.8825C13.1172 27.0759 13.0414 27.2837 12.9971 27.4991C12.9604 27.6496 12.9586 27.8065 12.9917 27.9579C13.0358 28.1447 13.0612 28.3466 13.1735 28.5093C13.3045 28.6991 13.4157 28.8986 13.6257 29.0353C13.7799 29.1419 13.9455 29.231 14.1194 29.3009C14.5945 29.4794 15.0537 29.4058 15.4614 29.1615C15.8108 28.9522 16.0195 28.7372 16.1817 28.2448C16.2836 27.9357 16.2891 27.8175 16.2167 27.5075C16.1987 27.4309 16.2119 27.3468 16.1928 27.2706C16.1747 27.1983 16.1214 27.1343 16.1058 27.0619C16.0992 27.0106 16.1133 26.9587 16.1448 26.9176C16.4053 26.5958 16.6753 26.2817 16.9339 25.9584C17.1844 25.6452 17.4235 25.323 17.6703 25.0068C17.7491 24.9058 17.8351 24.8809 17.9719 24.9338C18.1099 24.9855 18.2553 25.015 18.4026 25.021C18.6456 25.033 18.8636 24.9447 19.0912 24.8944C19.1176 24.8886 19.1304 24.8383 19.1699 24.883C19.2241 24.9443 19.3019 24.9905 19.3397 25.0595C19.4462 25.2538 19.6234 25.3805 19.7688 25.5371C20.0566 25.8472 20.3624 26.142 20.6321 26.467C20.7754 26.6396 20.9274 26.8013 21.0838 26.96C21.1399 27.017 21.1126 27.0486 21.0939 27.1147C21.0206 27.3735 20.9244 27.6392 20.9741 27.9103C21.0275 28.2021 21.111 28.48 21.3045 28.7325C21.4576 28.932 21.6515 29.0965 21.8733 29.215C22.1017 29.3424 22.3605 29.405 22.6218 29.3962ZM17.9063 23.3739C17.9074 23.1071 18.2089 22.7992 18.4673 22.8325C18.7748 22.8721 18.9775 23.0613 18.997 23.4035C19.0116 23.6589 18.6931 23.9295 18.4112 23.9219C18.1838 23.9157 17.9053 23.6134 17.9063 23.3739ZM22.5832 27.2031C22.934 27.2303 23.1434 27.4707 23.1521 27.7648C23.1599 28.0238 22.8626 28.2979 22.6083 28.2969C22.3415 28.2958 22.0505 27.9964 22.0625 27.7353C22.074 27.4847 22.35 27.2026 22.5832 27.2031ZM14.0781 27.7467C14.0821 27.4794 14.3817 27.1905 14.6419 27.2031C14.8923 27.2153 15.1838 27.4936 15.1696 27.7259C15.148 28.0783 14.9041 28.2844 14.608 28.2927C14.3499 28.3 14.0744 27.9988 14.0781 27.7467ZM9.0019 20.6406C9.27175 20.6506 9.55537 20.9516 9.53907 21.2108C9.52277 21.4699 9.23184 21.7436 8.98248 21.7344C8.71263 21.7244 8.42901 21.4234 8.44532 21.1642C8.46161 20.9051 8.75254 20.6314 9.0019 20.6406Z" fill="white"/>
<path d="M12.9567 14.8437C14.3139 14.8437 15.6711 14.8413 17.0283 14.8461C17.1338 14.8512 17.239 14.831 17.3351 14.7873C17.4312 14.7436 17.5155 14.6776 17.581 14.5947C17.6535 14.5125 17.6935 14.4068 17.6937 14.2972C17.6938 14.1876 17.654 14.0818 17.5817 13.9994C17.5163 13.9165 17.432 13.8504 17.3359 13.8066C17.2398 13.7628 17.1346 13.7427 17.0291 13.7479C14.3146 13.7512 11.6002 13.7515 8.88573 13.7491C8.7606 13.749 8.64554 13.7582 8.54078 13.8426C8.4182 13.9426 8.32847 14.0772 8.28322 14.2288C8.246 14.345 8.34857 14.4418 8.34852 14.5556C8.49889 14.7046 8.63261 14.8515 8.88503 14.8492C10.1966 14.8375 11.5084 14.8437 12.82 14.8437H12.9567Z" fill="white"/>
<path d="M12.9562 17.0312C14.3134 17.0312 15.6706 17.0288 17.0278 17.0336C17.1333 17.0388 17.2385 17.0187 17.3346 16.975C17.4308 16.9313 17.5151 16.8654 17.5807 16.7826C17.6533 16.7005 17.6935 16.5948 17.6937 16.4852C17.6939 16.3756 17.6542 16.2697 17.582 16.1873C17.5167 16.1044 17.4324 16.0382 17.3363 15.9944C17.2403 15.9506 17.1351 15.9304 17.0296 15.9355C14.3151 15.9386 11.6007 15.939 8.88625 15.9366C8.76122 15.9366 8.64596 15.9448 8.54111 16.0297C8.41874 16.13 8.32889 16.2643 8.28293 16.4157C8.24481 16.5327 8.34971 16.6286 8.34815 16.7427C8.49864 16.8915 8.63187 17.039 8.88452 17.0367C10.187 17.0249 11.4896 17.0312 12.7922 17.0312H12.9562Z" fill="white"/>
<path d="M16.1019 9.375C17.0309 9.375 17.9598 9.37194 18.8887 9.37718C18.9942 9.38256 19.0994 9.3625 19.1956 9.31869C19.2917 9.27489 19.3759 9.20862 19.4411 9.12548C19.5134 9.04317 19.5532 8.93733 19.5531 8.82778C19.5529 8.71823 19.5129 8.61249 19.4404 8.53034C19.3749 8.44756 19.2906 8.38158 19.1945 8.33786C19.0985 8.29414 18.9933 8.27393 18.8879 8.27891C17.0119 8.28307 15.1358 8.28352 13.2598 8.28025C13.1345 8.28015 13.0198 8.29085 12.9152 8.37454C12.7922 8.47404 12.7025 8.6089 12.6585 8.76091C12.6228 8.87615 12.6785 9.00525 12.7329 9.08096C12.8547 9.25074 13.0081 9.38428 13.2606 9.38057C14.2076 9.36667 15.1548 9.375 16.1019 9.375Z" fill="white"/>
<path d="M16.0752 10.4687C15.1281 10.4687 14.181 10.4688 13.2338 10.469C12.9578 10.4691 12.6897 10.7024 12.6584 10.9739C12.6613 11.0254 12.6699 11.0763 12.684 11.1259C12.7037 11.2915 12.8277 11.3848 12.937 11.4848C13.0349 11.5745 13.1629 11.5632 13.2865 11.5632C15.1534 11.5622 17.0204 11.5628 18.8873 11.5651C19.1289 11.5657 19.3192 11.4811 19.4568 11.2927C19.5098 11.229 19.5424 11.1508 19.5505 11.0683C19.5585 10.9858 19.5415 10.9028 19.5018 10.8301C19.3829 10.5977 19.2043 10.47 18.9439 10.4695C17.9877 10.4676 17.0314 10.4673 16.0752 10.4687Z" fill="white"/>
<path d="M18.7812 14.2837C18.7778 14.5496 19.0457 14.838 19.3014 14.8437C19.5821 14.85 19.8715 14.5808 19.875 14.31C19.8785 14.0441 19.6106 13.7557 19.3549 13.75C19.0742 13.7437 18.7848 14.0129 18.7812 14.2837Z" fill="white"/>
<path d="M19.315 17.0313C19.5808 17.0347 19.8693 16.7668 19.875 16.5111C19.8813 16.2304 19.612 15.941 19.3412 15.9375C19.0754 15.934 18.787 16.2019 18.7812 16.4576C18.7749 16.7383 19.0442 17.0277 19.315 17.0313Z" fill="white"/>
<path d="M27.1353 18.1289C27.4191 18.1019 27.7005 18.0538 27.9771 17.9849C28.3035 17.9099 28.5948 17.7582 28.8875 17.6105C29.0656 17.5246 29.2306 17.4141 29.3778 17.2821C29.6529 17.0246 29.9427 16.7752 30.1514 16.4574C30.3504 16.1534 30.5099 15.8254 30.6261 15.4811C30.6977 15.278 30.7444 15.067 30.7654 14.8527C30.7784 14.6971 30.8116 14.5425 30.8151 14.3832C30.8208 14.2772 30.7986 14.1715 30.7507 14.0768C30.7028 13.982 30.6308 13.9015 30.5419 13.8434C30.449 13.7806 30.3391 13.7476 30.2269 13.7487C30.1308 13.7498 30.0387 13.7874 29.9692 13.8538C29.8034 14.0014 29.6942 14.1607 29.7129 14.4064C29.7357 14.706 29.6235 15.1314 29.3708 15.5998C29.1938 15.9315 28.9471 16.2209 28.6476 16.448C28.3399 16.6759 27.9939 16.8469 27.626 16.953C27.4336 17.0162 27.2314 17.044 27.0292 17.0351C26.9057 17.0314 26.7843 17.0668 26.6821 17.1362C26.58 17.2056 26.5024 17.3055 26.4603 17.4216C26.4366 17.474 26.4255 17.5311 26.428 17.5885C26.4304 17.6459 26.4464 17.7019 26.4745 17.752C26.6528 18.0429 26.7884 18.1632 27.1353 18.1289Z" fill="white"/>
</g>
<defs>
<clipPath id="clip0_0_29">
<rect width="28" height="28" fill="white" transform="matrix(-1 0 0 1 33 5)"/>
</clipPath>
</defs>
</svg>
